<?xml version="1.0" encoding="UTF-8"?>
<svg width="128px" height="38px" viewBox="0 0 128 38" version="1.1" xmlns="http://www.w3.org/2000/svg" xmlns:xlink="http://www.w3.org/1999/xlink">
    <title>Logo / Haverton Black</title>
    <g id="0.0-Log-In-&amp;-Onboarding" stroke="none" stroke-width="1" fill="none" fill-rule="evenodd">
        <g id="0.0-Sign-In-(error-blank-both)" transform="translate(-576.000000, -48.000000)">
            <g id="logo" transform="translate(577.000000, 49.000000)">
                <path d="M51.4113753,21.0346565 L51.4113753,3.05024955 L54.0976185,3.05024955 L54.0976185,10.1578595 L56.992502,10.1578595 L56.992502,3.05024955 L59.6787453,3.05024955 L59.6787453,21.0346565 L56.992502,21.0346565 L56.992502,12.6885994 L54.0976185,12.6885994 L54.0976185,21.0346565 L51.4113753,21.0346565 Z M67.0593942,16.2154816 L64.3731509,16.2154816 L63.7733102,21.0346565 L61.0349069,21.0346565 L63.8515503,3.05024955 L67.6331548,3.05024955 L70.5541184,21.0346565 L67.737475,21.0346565 L67.0593942,16.2154816 Z M64.7121913,13.6847417 L66.7464338,13.6847417 C66.3291533,10.6155465 65.9640328,7.70788787 65.7553926,5.6886805 L65.6510725,5.6886805 C65.5989124,7.16943257 65.0512317,11.019388 64.7121913,13.6847417 Z M70.9192388,3.05024955 L73.8141223,3.05024955 L74.7530034,10.3732416 C75.0398838,12.7962904 75.4310842,15.3270303 75.5875644,17.4000832 L75.6397245,17.4000832 C75.7962047,15.4616442 76.1874051,12.8770587 76.4742855,10.4270871 L77.3349265,3.05024955 L80.20373,3.05024955 L77.2566864,21.0346565 L73.9706025,21.0346565 L70.9192388,3.05024955 Z M88.0277394,10.2655505 L88.0277394,12.8232132 L84.1939748,12.8232132 L84.1939748,18.4769938 L88.6275801,18.4769938 L88.2885397,21.0346565 L81.5077316,21.0346565 L81.5077316,3.05024955 L88.2363797,3.05024955 L88.2363797,5.63483497 L84.1939748,5.63483497 L84.1939748,10.2655505 L88.0277394,10.2655505 Z M90.0098218,21.0346565 L90.0098218,3.05024955 L93.7392663,3.05024955 C96.3994295,3.05024955 97.9642314,4.15408291 97.9642314,7.38481469 L97.9642314,8.05788381 C97.9642314,10.8309286 96.84279,11.5309205 96.1907892,11.8270709 C97.1818304,12.3116807 97.7816712,13.0655181 97.7816712,15.5154897 C97.7816712,17.0231645 97.7555911,19.9577459 97.9381513,21.0346565 L95.3301482,21.0346565 C95.121508,19.9577459 95.147588,16.9962418 95.147588,15.6770263 C95.147588,13.4962823 94.8867877,12.9847498 93.3219858,12.9847498 L92.696065,12.9847498 L92.696065,21.0346565 L90.0098218,21.0346565 Z M92.696065,5.33868456 L92.696065,10.6963148 L93.3219858,10.6963148 C94.7303075,10.6963148 95.2519081,10.1578595 95.2519081,8.19249764 L95.2519081,7.57327405 C95.2519081,6.17329027 94.9911078,5.33868456 93.4523859,5.33868456 L92.696065,5.33868456 Z M101.406796,21.0346565 L101.406796,5.63483497 L98.6162322,5.63483497 L98.6162322,3.05024955 L106.909682,3.05024955 L106.909682,5.63483497 L104.093039,5.63483497 L104.093039,21.0346565 L101.406796,21.0346565 Z M111.995288,2.7810219 C114.629371,2.7810219 116.194173,4.36946503 116.194173,7.81557893 L116.194173,16.2154816 C116.194173,19.6615955 114.785852,21.3038841 111.812728,21.3038841 C108.996085,21.3038841 107.718163,19.6346727 107.718163,16.2693271 L107.718163,7.81557893 C107.718163,4.36946503 109.387285,2.7810219 111.995288,2.7810219 Z M111.943128,5.3117618 C110.978167,5.3117618 110.456566,6.03867645 110.456566,7.54635128 L110.456566,16.5924003 C110.456566,18.1000751 110.978167,18.800067 111.943128,18.800067 C112.986329,18.800067 113.45577,18.1269979 113.45577,16.5654775 L113.45577,7.51942852 C113.45577,6.09252198 113.03849,5.3117618 111.943128,5.3117618 Z M120.679939,21.0346565 L118.176256,21.0346565 L118.176256,3.05024955 L121.279779,3.05024955 L123.600902,12.2309124 C123.913863,13.5501278 124.096423,14.6270384 124.252903,15.4077986 L124.278983,15.4077986 C124.148583,13.2001319 124.148583,10.669392 124.148583,7.73481064 L124.148583,3.05024955 L126.626186,3.05024955 L126.626186,21.0346565 L123.626982,21.0346565 L121.071139,10.5347782 C120.836419,9.59248141 120.706019,8.81172123 120.601699,8.27326593 L120.575619,8.27326593 C120.706019,10.4540099 120.679939,12.8770587 120.679939,16.1077905 L120.679939,21.0346565 Z M50.9854015,24.0021435 L52.5502033,24.0021435 L52.5502033,33.209729 C52.5502033,34.1251031 52.845777,34.6994554 53.6107913,34.6994554 C54.4105789,34.6994554 54.6713792,34.1071545 54.6713792,33.209729 L54.6713792,24.0021435 L56.2187944,24.0021435 L56.2187944,33.173832 C56.2187944,35.0404771 55.4016201,36.1532847 53.5934046,36.1532847 C51.8373492,36.1532847 50.9854015,35.1661166 50.9854015,33.1917805 L50.9854015,24.0021435 Z M61.5796898,35.9917481 L60.1192081,35.9917481 L60.1192081,24.0021435 L61.9448103,24.0021435 L63.6487056,30.6430921 C63.8921193,31.5405176 64.0138261,32.258458 64.1007595,32.7789648 L64.1355329,32.7789648 C64.0485995,31.235393 64.0485995,29.548233 64.0485995,27.5918454 L64.0485995,24.0021435 L65.4916945,24.0021435 L65.4916945,35.9917481 L63.7356391,35.9917481 L61.8231034,28.4174769 C61.6666232,27.789279 61.5796898,27.2867208 61.5101431,26.9277506 L61.4927564,26.9277506 C61.5623031,28.3815799 61.5796898,30.1225853 61.5796898,32.294355 L61.5796898,35.9917481 Z M69.4442682,24.0021435 L71.0090701,24.0021435 L71.0090701,35.9917481 L69.4442682,35.9917481 L69.4442682,24.0021435 Z M74.2661763,24.0021435 L75.952685,24.0021435 L76.6307658,29.0815718 C76.8567927,30.7328347 77.1523664,32.5815312 77.2566865,33.8917724 L77.2740732,33.8917724 C77.3783934,32.6353767 77.6913537,30.7866802 77.8826073,29.1354173 L78.5606881,24.0021435 L80.2124234,24.0021435 L78.2129544,35.9917481 L76.3004187,35.9917481 L74.2661763,24.0021435 Z M87.5554012,28.9020867 L87.5554012,30.3738645 L84.9821714,30.3738645 L84.9821714,34.5199703 L87.9205216,34.5199703 L87.7292681,35.9917481 L83.4173696,35.9917481 L83.4173696,24.0021435 L87.6944947,24.0021435 L87.6944947,25.4918698 L84.9821714,25.4918698 L84.9821714,28.9020867 L87.5554012,28.9020867 Z M91.1602411,35.9917481 L91.1602411,24.0021435 L93.4552839,24.0021435 C95.2113393,24.0021435 96.1676072,24.7559809 96.1676072,26.838008 L96.1676072,27.3226178 C96.1676072,29.0815718 95.5242997,29.6379756 94.9853124,29.8354092 C95.6981666,30.1584824 96.063287,30.6789891 96.063287,32.294355 C96.063287,33.3174201 96.0459004,35.2558592 96.1676072,35.9917481 L94.672352,35.9917481 C94.5158718,35.2558592 94.5506452,33.2635746 94.5506452,32.4020461 C94.5506452,30.9123198 94.342005,30.5354011 93.2640303,30.5354011 L92.725043,30.5354011 L92.725043,35.9917481 L91.1602411,35.9917481 Z M92.725043,25.3482817 L92.725043,29.1892628 L93.281417,29.1892628 C94.2898449,29.1892628 94.620192,28.7046531 94.620192,27.4123603 L94.620192,26.9456991 C94.620192,25.9405825 94.3767783,25.3482817 93.2988037,25.3482817 L92.725043,25.3482817 Z M99.4768734,32.5276857 L101.024289,32.5276857 L101.024289,33.2456261 C101.024289,34.2327941 101.337249,34.7891979 102.06749,34.7891979 C102.832504,34.7891979 103.075918,34.1251031 103.075918,33.1199865 C103.075918,31.7917968 102.797731,31.3251355 101.545889,30.3200189 C100.311434,29.3149024 99.6507403,28.668756 99.6507403,26.9098021 C99.6507403,25.3482817 100.102794,23.8226584 102.084877,23.8226584 C104.049572,23.8226584 104.449466,25.2405906 104.449466,26.6405744 L104.449466,27.2328752 L102.902051,27.2328752 L102.902051,26.6764714 C102.902051,25.7790459 102.745571,25.2046936 102.06749,25.2046936 C101.389409,25.2046936 101.215542,25.814943 101.215542,26.6764714 C101.215542,27.6277425 101.389409,28.0585067 102.43261,28.8482411 C104.119119,30.1405338 104.64072,30.8943713 104.64072,32.8866559 C104.64072,34.5738158 104.101732,36.1532847 102.032716,36.1532847 C99.998474,36.1532847 99.4768734,34.8071464 99.4768734,33.2276776 L99.4768734,32.5276857 Z M108.141239,24.0021435 L109.706041,24.0021435 L109.706041,35.9917481 L108.141239,35.9917481 L108.141239,24.0021435 Z M114.753976,35.9917481 L114.753976,25.4918698 L112.876214,25.4918698 L112.876214,24.0021435 L118.179154,24.0021435 L118.179154,25.4918698 L116.301392,25.4918698 L116.301392,35.9917481 L114.753976,35.9917481 Z M124.774504,35.9917481 L123.227089,35.9917481 L123.227089,31.6482087 C123.227089,31.5046206 123.209702,31.4148781 123.174929,31.27129 L121.018979,24.0021435 L122.740262,24.0021435 C123.244475,26.0482736 123.85301,28.4174769 124.026876,29.6379756 L124.044263,29.6379756 C124.287677,28.3456829 124.878824,25.9764795 125.348265,24.0021435 L127,24.0021435 L124.809277,31.3969295 C124.791891,31.4866721 124.774504,31.5943632 124.774504,31.8097453 L124.774504,35.9917481 Z" id="HAVERTON-UNIVERSITY" fill="#001C33"></path>
                <g stroke="#001C33" stroke-linecap="round" stroke-linejoin="round" stroke-width="2.4">
                    <path d="M24.0454513,10.7310406 C21.1169563,8.77784338 20.4121274,5.36103863 21.9309649,0.480626385 C24.805887,0.480626385 28.3782463,3.2718564 29.0091952,6.51351954 C32.0137526,8.34756623 35.0938339,13.1174637 38.2494392,20.8232118 C35.5897098,23.6407898 33.4753818,24.793212 31.9064551,24.2804783 C29.5530651,23.5113778 27.8252919,19.8629419 27.8252919,19.8629419 C27.8252919,19.8629419 23.362485,17.1384372 22.7365514,22.7727465 C21.9514016,25.3670478 26.0975187,25.8619259 27.8252919,26.7435657 C28.9771407,27.3313256 30.0311362,28.194946 30.9872785,29.3344269 L27.8252919,34.8242811 C27.3706147,31.7256005 26.626972,30.1762603 25.5943637,30.1762603 C24.0454513,30.1762603 17.722904,30.6613096 18.5417981,21.686177" id="Path-2"></path>
                    <path d="M19.9053543,3.29017755 C17.7073784,1.59799263 15.541721,1.59799263 13.408382,3.29017755 C10.2083737,5.82845493 8.08960977,6.56118902 6.07825741,4.92568329 C4.06690505,3.29017755 5.47751322,11.1178024 11.2948461,11.1178024" id="Path-3"></path>
                    <path d="M9.04158018,10.6774739 C6.03564132,11.6269321 4.12742305,12.7670684 3.31692536,14.0978825 C2.50642767,15.4286967 1.56808173,16.0808349 0.501887546,16.0542973 C3.82277351,16.2351465 6.08000007,16.7142985 7.27356723,17.4917535" id="Path-4"></path>
                    <path d="M7.7854355,17.6131387 C6.01964049,20.2986837 4.32846323,21.6414561 2.71190373,21.6414561 C0.287064467,21.6414561 7.82963582,34.2846821 19.8844424,34.2846821 C19.8844424,32.525334 20.3148014,30.8416673 21.1755196,29.2336821" id="Path-5"></path>
                    <path d="M19.1085603,13.4803906 C18.254496,11.4450182 18.9196396,9.67100882 21.1039911,8.15836259" id="Path-6"></path>
                    <line x1="31.0015367" y1="16.2137689" x2="28.6472753" y2="12.7990118" id="Path-7"></line>
                    <line x1="36.5009124" y1="19.6260688" x2="34.5541971" y2="20.6325339" id="Path-7"></line>
                </g>
            </g>
        </g>
    </g>
</svg>