<?xml version="1.0" encoding="UTF-8" standalone="no"?>
<svg
   xmlns:dc="http://purl.org/dc/elements/1.1/"
   xmlns:cc="http://creativecommons.org/ns#"
   xmlns:rdf="http://www.w3.org/1999/02/22-rdf-syntax-ns#"
   xmlns:svg="http://www.w3.org/2000/svg"
   xmlns="http://www.w3.org/2000/svg"
   xmlns:sodipodi="http://sodipodi.sourceforge.net/DTD/sodipodi-0.dtd"
   xmlns:inkscape="http://www.inkscape.org/namespaces/inkscape"
   version="1.1"
   id="svg2"
   xml:space="preserve"
   width="2425.3333"
   height="820"
   viewBox="0 0 2425.3333 820"
   sodipodi:docname="Vemo Logo Final-Large.ai"><metadata
     id="metadata8"><rdf:RDF><cc:Work
         rdf:about=""><dc:format>image/svg+xml</dc:format><dc:type
           rdf:resource="http://purl.org/dc/dcmitype/StillImage" /></cc:Work></rdf:RDF></metadata><defs
     id="defs6"><clipPath
       clipPathUnits="userSpaceOnUse"
       id="clipPath18"><path
         d="M 0,615 H 1819 V 0 H 0 Z"
         id="path16" /></clipPath></defs><sodipodi:namedview
     pagecolor="#ffffff"
     bordercolor="#666666"
     borderopacity="1"
     objecttolerance="10"
     gridtolerance="10"
     guidetolerance="10"
     inkscape:pageopacity="0"
     inkscape:pageshadow="2"
     inkscape:window-width="640"
     inkscape:window-height="480"
     id="namedview4" /><g
     id="g10"
     inkscape:groupmode="layer"
     inkscape:label="Vemo Logo Final-Large"
     transform="matrix(1.3333333,0,0,-1.3333333,0,820)"><g
       id="g12"><g
         id="g14"
         clip-path="url(#clipPath18)"><g
           id="g20"
           transform="translate(995.5937,59.9853)"><path
             d="M 0,0 C -4.83,18.977 -18.458,27.428 -34.328,27.428 -50.713,27.428 -62.961,18.63 -68.31,0 Z m -69.518,-10.351 c 0.518,-21.045 14.836,-36.398 34.499,-36.398 19.149,0 28.29,10.869 35.019,21.908 l 9.832,-5.176 C 0.519,-48.301 -13.8,-57.442 -33.81,-57.442 c -30.36,0 -47.782,23.285 -47.782,47.782 0,25.012 18.459,48.472 47.092,48.472 26.049,0 47.092,-18.802 47.438,-49.163 z"
             style="fill:#03416f;fill-opacity:1;fill-rule:nonzero;stroke:none"
             id="path22" /></g><g
           id="g24"
           transform="translate(1042.5947,50.497)"><path
             d="m 0,0 c 0,-19.836 15.523,-37.261 36.052,-37.261 18.802,0 36.398,14.148 36.398,36.917 0,21.215 -15.698,37.26 -36.226,37.26 C 15.18,36.916 0,19.666 0,0 m 71.76,-30.014 c -10.007,-12.076 -22.599,-17.94 -36.916,-17.94 -26.739,0 -46.92,22.252 -46.92,48.3 0,26.046 20.699,47.954 47.265,47.954 14.834,0 27.429,-6.382 36.571,-19.149 V 81.248 H 83.489 V -45.712 H 71.76 Z"
             style="fill:#03416f;fill-opacity:1;fill-rule:nonzero;stroke:none"
             id="path26" /></g><g
           id="g28"
           transform="translate(1225.1943,96.3828)"><path
             d="m 0,0 h 12.42 v -47.438 c 0,-30.878 -13.972,-46.402 -40.191,-46.402 -26.22,0 -40.364,15.524 -40.364,46.402 V 0 h 12.42 v -44.678 c 0,-9.66 0,-17.596 2.589,-23.116 4.312,-9.313 13.8,-14.662 25.355,-14.662 8.452,0 15.87,3.106 20.7,8.108 7.247,7.762 7.071,16.56 7.071,29.67 z"
             style="fill:#03416f;fill-opacity:1;fill-rule:nonzero;stroke:none"
             id="path30" /></g><g
           id="g32"
           transform="translate(1357.0488,23.2431)"><path
             d="m 0,0 c -8.97,-13.628 -24.493,-20.7 -42.951,-20.7 -30.189,0 -50.37,21.733 -50.37,47.263 0,26.911 21.044,48.991 51.231,48.991 17.597,0 33.639,-7.244 42.09,-21.391 L -9.488,48.3 c -8.105,10.693 -19.32,15.87 -33.119,15.87 -23.286,0 -38.641,-17.078 -38.641,-36.745 0,-20.007 15.181,-37.432 38.815,-37.432 13.282,0 24.322,5.349 32.945,16.045 z"
             style="fill:#03416f;fill-opacity:1;fill-rule:nonzero;stroke:none"
             id="path34" /></g><g
           id="g36"
           transform="translate(1388.8506,50.497)"><path
             d="m 0,0 c 0,-19.836 15.526,-37.261 36.055,-37.261 18.801,0 36.57,14.148 36.57,36.917 0,21.215 -15.87,37.26 -36.398,37.26 C 15.18,36.916 0,19.666 0,0 M 71.76,45.886 H 83.318 V -45.712 H 71.76 v 15.698 c -10.003,-12.076 -22.595,-17.94 -36.913,-17.94 -26.739,0 -46.92,22.252 -46.92,48.3 0,26.046 20.7,47.954 47.266,47.954 14.833,0 27.425,-6.382 36.567,-19.149 z"
             style="fill:#03416f;fill-opacity:1;fill-rule:nonzero;stroke:none"
             id="path38" /></g><g
           id="g40"
           transform="translate(1511.8027,130.5361)"><path
             d="m 0,0 h 11.73 v -34.153 h 18.802 v -10.35 H 11.73 v -81.248 H 0 v 81.248 h -16.213 v 10.35 H 0 Z"
             style="fill:#03416f;fill-opacity:1;fill-rule:nonzero;stroke:none"
             id="path42" /></g><path
           d="m 1563.139,96.383 h 11.729 V 4.785 h -11.729 z m 15.522,28.118 c 0,-5.348 -4.482,-9.835 -9.831,-9.835 -5.349,0 -9.66,4.487 -9.66,9.835 0,5.52 4.486,9.66 9.66,9.66 5.349,0 9.831,-4.314 9.831,-9.66"
           style="fill:#03416f;fill-opacity:1;fill-rule:nonzero;stroke:none"
           id="path44" /><g
           id="g46"
           transform="translate(1612.0732,50.1533)"><path
             d="m 0,0 c 0,-20.01 15.008,-36.398 35.708,-36.398 20.528,0 35.708,16.388 35.708,36.398 0,20.354 -16.217,37.26 -35.708,37.26 C 16.041,37.26 0,20.354 0,0 m 83.489,0.172 c 0,-26.049 -20.181,-47.957 -47.781,-47.957 -27.6,0 -47.781,21.908 -47.781,47.957 0,26.22 20.353,48.472 47.781,48.472 27.429,0 47.781,-22.252 47.781,-48.472"
             style="fill:#03416f;fill-opacity:1;fill-rule:nonzero;stroke:none"
             id="path48" /></g><g
           id="g50"
           transform="translate(1734.248,79.9951)"><path
             d="m 0,0 c 9.488,12.42 20.872,18.802 34.328,18.802 20.01,0 33.982,-13.801 33.982,-42.609 V -75.21 H 56.58 v 49.852 C 56.58,-3.794 49.852,8.108 32.087,8.108 22.252,8.108 14.146,3.793 7.934,-4.312 1.033,-13.282 0,-22.252 0,-36.742 V -75.21 h -11.729 v 91.598 l 11.729,0 z"
             style="fill:#03416f;fill-opacity:1;fill-rule:nonzero;stroke:none"
             id="path52" /></g><g
           id="g54"
           transform="translate(1436.75,186.3086)"><path
             d="m 0,0 c 0,-3.649 -2.919,-6.568 -6.436,-6.568 h -80.142 c -3.517,0 -6.369,2.919 -6.369,6.568 v 179.923 c 0,73.244 -36.423,73.244 -48.431,73.244 -39.939,0 -62.893,-33.637 -62.893,-92.284 V 0 c 0,-3.649 -2.853,-6.568 -6.37,-6.568 h -80.143 c -3.583,0 -6.435,2.919 -6.435,6.568 v 157.831 c 0,68.599 -14.064,95.336 -50.222,95.336 -39.009,0 -62.296,-34.964 -62.296,-93.479 V 0 c 0,-3.649 -2.853,-6.568 -6.369,-6.568 h -80.143 c -3.517,0 -6.436,2.919 -6.436,6.568 v 326.078 c 0,3.649 2.919,6.568 6.436,6.568 h 80.143 c 3.516,0 6.369,-2.919 6.369,-6.568 v -14.463 c 0,-1.261 0.73,-2.455 1.924,-2.986 1.194,-0.53 2.52,-0.398 3.516,0.465 25.277,21.031 55.795,32.177 88.171,32.177 39.142,0 70.987,-17.117 92.018,-49.559 0.531,-0.863 1.525,-1.46 2.521,-1.526 0.995,0 2.056,0.398 2.786,1.194 30.187,34.963 61.103,49.891 103.298,49.891 37.085,0 70.92,-15.127 90.558,-40.537 h 0.066 C -1.924,271.278 0,232.003 0,191.002 Z"
             style="fill:#03416f;fill-opacity:1;fill-rule:evenodd;stroke:none"
             id="path56" /></g><g
           id="g58"
           transform="translate(1436.75,186.3086)"><path
             d="m 0,0 c 0,-3.649 -2.919,-6.568 -6.436,-6.568 h -80.142 c -3.517,0 -6.369,2.919 -6.369,6.568 v 179.923 c 0,73.244 -36.423,73.244 -48.431,73.244 -39.939,0 -62.893,-33.637 -62.893,-92.284 V 0 c 0,-3.649 -2.853,-6.568 -6.37,-6.568 h -80.143 c -3.583,0 -6.435,2.919 -6.435,6.568 v 157.831 c 0,68.599 -14.064,95.336 -50.222,95.336 -39.009,0 -62.296,-34.964 -62.296,-93.479 V 0 c 0,-3.649 -2.853,-6.568 -6.369,-6.568 h -80.143 c -3.517,0 -6.436,2.919 -6.436,6.568 v 326.078 c 0,3.649 2.919,6.568 6.436,6.568 h 80.143 c 3.516,0 6.369,-2.919 6.369,-6.568 v -14.463 c 0,-1.261 0.73,-2.455 1.924,-2.986 1.194,-0.53 2.52,-0.398 3.516,0.465 25.277,21.031 55.795,32.177 88.171,32.177 39.142,0 70.987,-17.117 92.018,-49.559 0.531,-0.863 1.525,-1.46 2.521,-1.526 0.995,0 2.056,0.398 2.786,1.194 30.187,34.963 61.103,49.891 103.298,49.891 37.085,0 70.92,-15.127 90.558,-40.537 h 0.066 C -1.924,271.278 0,232.003 0,191.002 Z"
             style="fill:#ffffff;fill-opacity:1;fill-rule:nonzero;stroke:none"
             id="path60" /></g><g
           id="g62"
           transform="translate(1436.75,377.311)"><path
             d="m 0,0 v -191.002 c 0,-3.65 -2.919,-6.569 -6.436,-6.569 h -80.142 c -3.517,0 -6.369,2.919 -6.369,6.569 v 179.923 c 0,73.243 -36.423,73.243 -48.431,73.243 -39.939,0 -62.893,-33.636 -62.893,-92.284 v -160.882 c 0,-3.65 -2.853,-6.569 -6.37,-6.569 h -80.143 c -3.583,0 -6.435,2.919 -6.435,6.569 v 157.83 c 0,68.6 -14.064,95.336 -50.222,95.336 -39.009,0 -62.296,-34.963 -62.296,-93.478 v -159.688 c 0,-3.65 -2.853,-6.569 -6.369,-6.569 h -80.143 c -3.517,0 -6.436,2.919 -6.436,6.569 v 326.077 c 0,3.65 2.919,6.568 6.436,6.568 h 80.143 c 3.516,0 6.369,-2.918 6.369,-6.568 v -14.463 c 0,-1.26 0.73,-2.454 1.924,-2.985 1.194,-0.53 2.52,-0.398 3.516,0.464 25.277,21.032 55.795,32.177 88.171,32.177 39.142,0 70.987,-17.117 92.018,-49.559 0.531,-0.862 1.525,-1.459 2.521,-1.525 0.995,0 2.056,0.398 2.786,1.194 30.187,34.963 61.103,49.89 103.298,49.89 37.085,0 70.92,-15.126 90.558,-40.536 h 0.066 C -1.924,80.275 0,41 0,0"
             style="fill:#03416f;fill-opacity:1;fill-rule:nonzero;stroke:none"
             id="path64" /></g><g
           id="g66"
           transform="translate(1636.6426,445.645)"><path
             d="m 0,0 c -47.436,0 -81.801,-35.892 -81.801,-85.384 0,-51.416 32.84,-85.981 81.801,-85.981 49.228,0 83.659,35.095 83.659,85.384 C 83.659,-34.565 50.022,0 0,0 m -0.597,-259.602 c -99.514,0 -177.402,76.228 -177.402,173.621 0,96.065 79.28,174.217 176.738,174.217 99.848,0 181.118,-77.887 181.118,-173.62 0,-97.724 -79.28,-174.218 -180.454,-174.218"
             style="fill:#03416f;fill-opacity:1;fill-rule:evenodd;stroke:none"
             id="path68" /></g><g
           id="g70"
           transform="translate(1636.6426,274.2802)"><path
             d="m 0,0 c -48.961,0 -81.801,34.564 -81.801,85.98 0,49.493 34.365,85.385 81.801,85.385 50.022,0 83.659,-34.565 83.659,-85.981 C 83.659,35.095 49.228,0 0,0 m -1.261,259.601 c -97.458,0 -176.738,-78.152 -176.738,-174.217 0,-97.393 77.888,-173.621 177.402,-173.621 101.174,0 180.454,76.494 180.454,174.217 0,95.734 -81.27,173.621 -181.118,173.621"
             style="fill:#03416f;fill-opacity:1;fill-rule:nonzero;stroke:none"
             id="path72" /></g><g
           id="g74"
           transform="translate(737.1587,450.6206)"><path
             d="m 0,0 c -32.973,0 -58.582,-16.122 -73.974,-46.706 -0.53,-1.062 -0.464,-2.255 0.133,-3.251 0.597,-0.995 1.658,-1.592 2.854,-1.592 h 144.76 c 1.129,0 2.19,0.597 2.788,1.526 0.595,0.929 0.728,2.123 0.263,3.185 C 63.358,-17.515 34.631,0 0,0 m 175.013,-107.808 c -0.133,-2.654 -0.332,-5.241 -0.332,-8.757 0,-3.583 -2.919,-6.502 -6.501,-6.502 H -80.144 c -1.061,0 -2.057,-0.465 -2.653,-1.327 -0.664,-0.862 -0.863,-1.924 -0.531,-2.919 10.747,-36.024 41.265,-57.52 81.603,-57.52 32.507,0 53.804,8.293 75.83,29.722 1.991,1.924 4.909,2.389 7.365,1.261 l 68.199,-32.243 c 1.727,-0.796 2.987,-2.389 3.518,-4.246 0.464,-1.791 0.132,-3.783 -0.996,-5.374 -36.024,-51.084 -83.46,-73.907 -153.916,-73.907 -101.838,0 -175.81,74.371 -175.81,176.739 0,85.384 61.168,176.142 174.615,176.142 104.955,0 178.265,-74.702 178.265,-181.582 0,-3.715 -0.199,-6.502 -0.332,-9.487"
             style="fill:#03416f;fill-opacity:1;fill-rule:evenodd;stroke:none"
             id="path76" /></g><g
           id="g78"
           transform="translate(813.7192,400.5976)"><path
             d="m 0,0 c -0.598,-0.929 -1.659,-1.525 -2.788,-1.525 h -144.76 c -1.195,0 -2.256,0.596 -2.854,1.591 -0.596,0.996 -0.662,2.189 -0.133,3.251 15.392,30.584 41.002,46.706 73.974,46.706 34.631,0 63.359,-17.514 76.825,-46.838 C 0.729,2.124 0.596,0.929 0,0 m -79.481,133.284 c -113.447,0 -174.615,-90.758 -174.615,-176.142 0,-102.368 73.972,-176.739 175.81,-176.739 70.456,0 117.892,22.822 153.917,73.907 1.127,1.591 1.459,3.583 0.996,5.374 -0.531,1.857 -1.792,3.45 -3.518,4.246 l -68.2,32.243 c -2.455,1.128 -5.374,0.663 -7.365,-1.261 -22.026,-21.429 -43.322,-29.722 -75.83,-29.722 -40.337,0 -70.856,21.496 -81.603,57.52 -0.331,0.995 -0.132,2.056 0.532,2.919 0.596,0.863 1.592,1.327 2.653,1.327 H 91.619 c 3.583,0 6.502,2.919 6.502,6.502 0,3.516 0.199,6.104 0.332,8.757 0.132,2.986 0.332,5.772 0.332,9.487 0,106.88 -73.31,181.582 -178.266,181.582"
             style="fill:#03416f;fill-opacity:1;fill-rule:nonzero;stroke:none"
             id="path80" /></g><g
           id="g82"
           transform="translate(509.2241,612.6318)"><path
             d="m 0,0 h 89.089 c 10.276,0 18.606,-8.331 18.606,-18.607 0,-2.594 -0.542,-5.159 -1.591,-7.531 L -62.755,-407.667 c -4.405,-9.951 -14.277,-16.356 -25.16,-16.323 l -61.041,0.19 c -28.768,0.089 -52.016,23.482 -51.927,52.25 0.022,7.045 1.473,14.013 4.265,20.482 L -62.939,-41.384 C -52.097,-16.267 -27.358,0 0,0"
             style="fill:#1c79c4;fill-opacity:1;fill-rule:evenodd;stroke:none"
             id="path84" /></g><g
           id="g86"
           transform="translate(426.917,189.2207)"><path
             d="m 0,0 c -15.236,2.226 -30.655,16.541 -46.258,42.945 -16.167,27.36 -57.527,141.258 -124.08,341.696 v 0 c -7.579,22.826 -28.926,38.231 -52.978,38.231 h -87.56 c -9.736,0 -17.628,-7.892 -17.628,-17.628 0,-1.933 0.318,-3.853 0.941,-5.683 L -213.914,65.845 c 13.534,-39.739 50.889,-66.432 92.869,-66.361 l 115.978,-0.059 3.164,0.26 z"
             style="fill:#03416f;fill-opacity:1;fill-rule:evenodd;stroke:none"
             id="path88" /></g><g
           id="g90"
           transform="translate(228.1509,606.6426)"><path
             d="m 0,0 c -9.77,4.463 -18.513,5.982 -26.471,5.406 -19.112,-1.385 -28.355,-31.186 -39.688,-56.947 -7.555,-17.173 -15.214,-46.357 -22.974,-87.552 l 34.343,-96.105 c 3.862,27.521 8.082,53.337 12.66,77.449 C -22.637,-55.068 1.95,-16.74 31.631,-42.766 26.436,-21.768 15.891,-7.513 0,0"
             style="fill:#000000;fill-opacity:1;fill-rule:evenodd;stroke:none"
             id="path92" /></g><g
           id="g94"
           transform="translate(45.5811,581.7119)"><path
             d="m 0,0 c -24.863,-76.112 -33.764,-124.843 -42.479,-151.281 -0.392,-1.187 -0.582,-2.366 -0.602,-3.499 v -0.398 c 0.123,-6.743 6.249,-11.618 11.069,-7.019 l 59.557,56.834 c 1.876,1.787 4.533,1.005 5.643,-1.672 l 34.54,-83.078 c 3.643,-8.758 13.618,-7.025 15.309,2.711 9.517,54.873 13.757,111.842 39.01,170.741 12.67,29.554 25.997,45.23 39.983,47.028 0.182,0.024 0.364,0.045 0.546,0.063 H 160.796 38.399 C 15.832,30.43 8.413,25.75 0,0"
             style="fill:#1c79c4;fill-opacity:1;fill-rule:evenodd;stroke:none"
             id="path96" /></g></g></g></g></svg>
